# xmcd
#
# Track frame offsets: 
#        150
#        13791
#        25815
#        39011
#        51316
#        64512
#        78251
#        90624
#        103597
#        116207
#        130002
#        142222
#        154679
#        168739
#        181837
#        195382
#        209650
#        223528
#        236612
#        248971
#
# Disc length: 3503 seconds
#
# Revision: 0
# Processed by: cddbd v1.5.2PL0 Copyright (c) Steve Scherf et al.
# Submitted via: ExactAudioCopy v0.99pb4
#
DISCID=150dad14
DTITLE=T-Bone Walker - Jukebox Hits 1943-1952
DYEAR=2006
DGENRE=Blues
TTITLE0=Riffette
TTITLE1=Bobby Sox Blues
TTITLE2=I'm Gonna Find My Baby
TTITLE3=No Worry Blues
TTITLE4=It's a Low Down Dirty Deal
TTITLE5=Call It Stormy Monday
TTITLE6=I Know Your Wig is Gone
TTITLE7=Long Skirt Baby Blues
TTITLE8=I Want My Little Girl
TTITLE9=I'm Waiting for Your Call
TTITLE10=Midnight Blues
TTITLE11=West Side Baby
TTITLE12=Description Blues
TTITLE13=That Old Feeling is Gone
TTITLE14=T-Bone Shuffle
TTITLE15=First Love
TTITLE16=Go Back to The One You Love
TTITLE17=On Your Way Blues
TTITLE18=Glamour Girl
TTITLE19=Street Walkin' Woman
EXTD=
EXTT0=
EXTT1=
EXTT2=
EXTT3=
EXTT4=
EXTT5=
EXTT6=
EXTT7=
EXTT8=
EXTT9=
EXTT10=
EXTT11=
EXTT12=
EXTT13=
EXTT14=
EXTT15=
EXTT16=
EXTT17=
EXTT18=
EXTT19=
PLAYORDER=
